# xmcd
#
# Track frame offsets:
#	150
#	2912
#	7827
#	14320
#	18785
#	25240
#	30755
#	47285
#	57285
#	67010
#	75382
#	80132
#	84185
#	89777
#	100675
#	113107
#	125210
#	135477
#	145940
#	160210
#	165592
#	172757
#	183675
#	193105
#	203257
#	218477
#	225827
#	233767
#	243220
#	254747
#	262730
#	274542
#	286960
#	294770
#	311780
#	319740
#
# Disc length: 4323 seconds
#
# Revision: 1
# Processed by: cddbd v1.5.1PL0 Copyright (c) Steve Scherf et al.
# Submitted via: CDex 1.50Beta5
#
DISCID=c810e124
DTITLE=SEGA - ダイナマイト刑事2
DYEAR=1900
DGENRE=Soundtrack
TTITLE0=DESTINATION
TTITLE1=HIGH-RISE TO HELL
TTITLE2=CORRIDOR OF DEATH
TTITLE3=DOE BOY'S DUNGEON
TTITLE4=SUBTERRANEON SIEGE
TTITLE5=STEEPLE CHASE
TTITLE6=FIVE ALARM FIRE
TTITLE7=FLOOR #13
TTITLE8=A CALM BEFORE THE STORM
TTITLE9=FOUR WALLS OF FURY
TTITLE10=PENTHOUSE PANDEMONIUM
TTITLE11=CONGRATULATIONS
TTITLE12=THE LAST STAND
TTITLE13=Introduction〜CHOOSE YOUR FATE
TTITLE14=BOMB VOYAGE
TTITLE15=POOP DECK PURSUIT
TTITLE16=A DANGEROUS GAME
TTITLE17=MURDEROUS MATIES
TTITLE18=FISHING FOR TROUBLE
TTITLE19=BLOODY FOOTSTEPS
TTITLE20=DANCE OF MAYHEM
TTITLE21=SOUFFLE SAMURAI
TTITLE22=MOO GOO DIE PAN
TTITLE23=SAKE TO YA
TTITLE24=BAIT ME
TTITLE25=FREEZER BURN
TTITLE26=8FIRE IN THE HOLE
TTITLE27=8 ARMS OF DEATH
TTITLE28=YO ELEVEN!
TTITLE29=SPLISH SPLASH!
TTITLE30=ON THE ROCKS
TTITLE31=SHAM!
TTITLE32=GAUNTLET TO GLORY
TTITLE33=NO ONE GETS OUT ALIVE
TTITLE34=WINNER'S CIRCLE
TTITLE35=GAME OVER
EXTD=
EXTT0=
EXTT1=
EXTT2=
EXTT3=
EXTT4=
EXTT5=
EXTT6=
EXTT7=
EXTT8=
EXTT9=
EXTT10=
EXTT11=
EXTT12=
EXTT13=
EXTT14=
EXTT15=
EXTT16=
EXTT17=
EXTT18=
EXTT19=
EXTT20=
EXTT21=
EXTT22=
EXTT23=
EXTT24=
EXTT25=
EXTT26=
EXTT27=
EXTT28=
EXTT29=
EXTT30=
EXTT31=
EXTT32=
EXTT33=
EXTT34=
EXTT35=
PLAYORDER=
